<svg xmlns="http://www.w3.org/2000/svg" width="405.303" height="75" viewBox="0 0 405.303 75"><g transform="translate(-67 -38)"><path d="M5.715-2.6H2.352L1.579,0H.294L3.5-9.953H4.573L7.786,0H6.5ZM2.68-3.678H5.394L4.033-8.2Zm7.536,2.6H14.94V0H8.828V-.984l4.532-7.9H8.876V-9.953h5.879V-9ZM19.735.137a3.047,3.047,0,0,1-2.567-1.179,5.5,5.5,0,0,1-.906-3.4v-.8h5.694v-.048a4.754,4.754,0,0,0-.673-2.734A2.182,2.182,0,0,0,19.38-9a3.556,3.556,0,0,0-1.661.39l-.342.185L17.09-9.4a2.3,2.3,0,0,1,.926-.485,4.48,4.48,0,0,1,1.364-.205,3.4,3.4,0,0,1,2.806,1.3,5.573,5.573,0,0,1,1.036,3.572v.574a6.351,6.351,0,0,1-.451,2.437A4.076,4.076,0,0,1,21.509-.489,2.839,2.839,0,0,1,19.735.137Zm0-1.073a1.781,1.781,0,0,0,1.521-.884,4.746,4.746,0,0,0,.687-2.4H17.52v.233A3.881,3.881,0,0,0,18.077-1.7,1.92,1.92,0,0,0,19.735-.937Zm8.507-3.09h-1.75V0H25.234V-9.953h2.789a2.979,2.979,0,0,1,2.215.762,3.05,3.05,0,0,1,.752,2.232,3.1,3.1,0,0,1-.407,1.61,2.57,2.57,0,0,1-1.152,1.036L31.359-.082V0H30.013ZM26.492-5.1H28.01a1.625,1.625,0,0,0,1.254-.507,1.919,1.919,0,0,0,.468-1.356Q29.733-8.88,28-8.88h-1.5ZM32.805,0V-9.953h2.837a2.841,2.841,0,0,1,2.047.663A2.644,2.644,0,0,1,38.376-7.3a2.2,2.2,0,0,1-.349,1.23,2.343,2.343,0,0,1-.943.827,1.893,1.893,0,0,1,1.083.841,2.818,2.818,0,0,1,.4,1.531,2.914,2.914,0,0,1-.735,2.105,2.768,2.768,0,0,1-2.1.766Zm1.251-4.655v3.582h1.709a1.434,1.434,0,0,0,1.128-.468,1.912,1.912,0,0,0,.417-1.316q0-1.8-1.518-1.8Zm0-1.053h1.606a1.353,1.353,0,0,0,1.049-.438,1.661,1.661,0,0,0,.4-1.165,1.67,1.67,0,0,0-.362-1.2,1.48,1.48,0,0,0-1.107-.373H34.056ZM45.222-2.6H41.859L41.087,0H39.8l3.206-9.953h1.073L47.294,0H46.009ZM42.187-3.678H44.9L43.541-8.2Zm8.548-1.278,2.037-5h1.415l-2.83,6.241V0H50.107V-3.712l-2.83-6.241H48.7ZM61.868-3.165a3.689,3.689,0,0,1-.9,2.451,3.048,3.048,0,0,1-2.307.851A2.852,2.852,0,0,1,56.283-1,4.915,4.915,0,0,1,55.4-4.088v-1.8a4.767,4.767,0,0,1,.906-3.069,3,3,0,0,1,2.471-1.128,2.875,2.875,0,0,1,2.232.861,3.774,3.774,0,0,1,.858,2.468H60.6A3.075,3.075,0,0,0,60.09-8.5a1.607,1.607,0,0,0-1.312-.52,1.785,1.785,0,0,0-1.565.8,4.124,4.124,0,0,0-.547,2.334v1.825a4.359,4.359,0,0,0,.509,2.317,1.651,1.651,0,0,0,1.487.807,1.8,1.8,0,0,0,1.408-.485A3.054,3.054,0,0,0,60.6-3.165Zm6.477.561H64.981L64.209,0H62.924L66.13-9.953H67.2L70.416,0H69.131ZM65.309-3.678h2.714L66.663-8.2ZM78.41,0H77.153L73.167-7.67V0H71.909V-9.953h1.258l4,7.7v-7.7H78.41Zm8.661-4.026h-1.75V0H84.063V-9.953h2.789a2.979,2.979,0,0,1,2.215.762,3.05,3.05,0,0,1,.752,2.232,3.1,3.1,0,0,1-.407,1.61,2.57,2.57,0,0,1-1.152,1.036L90.188-.082V0H88.842ZM85.321-5.1h1.518a1.625,1.625,0,0,0,1.254-.507,1.919,1.919,0,0,0,.468-1.356q0-1.917-1.736-1.917h-1.5Zm11.084.5H92.885v3.527h4.1V0H91.634V-9.953h5.284V-8.88H92.885v3.206h3.521Zm6.668,2.085a1.53,1.53,0,0,0-.4-1.142,4.132,4.132,0,0,0-1.456-.772,6.321,6.321,0,0,1-1.61-.79,2.794,2.794,0,0,1-.834-.943,2.581,2.581,0,0,1-.277-1.213,2.6,2.6,0,0,1,.79-1.948,2.845,2.845,0,0,1,2.068-.766,3.086,3.086,0,0,1,1.559.391,2.665,2.665,0,0,1,1.053,1.087,3.216,3.216,0,0,1,.369,1.53h-1.258a2.1,2.1,0,0,0-.444-1.429,1.611,1.611,0,0,0-1.278-.506,1.573,1.573,0,0,0-1.176.425A1.628,1.628,0,0,0,99.758-7.4a1.389,1.389,0,0,0,.451,1.055,4,4,0,0,0,1.395.76,4.8,4.8,0,0,1,2.1,1.2,2.693,2.693,0,0,1,.632,1.859,2.515,2.515,0,0,1-.786,1.938,3.026,3.026,0,0,1-2.14.728,3.442,3.442,0,0,1-1.6-.379,2.868,2.868,0,0,1-1.155-1.066,2.958,2.958,0,0,1-.42-1.576h1.258a1.933,1.933,0,0,0,.516,1.436,1.905,1.905,0,0,0,1.4.513,1.672,1.672,0,0,0,1.244-.424A1.576,1.576,0,0,0,103.074-2.516Zm4.3-1.381V0h-1.251V-9.953h3.172a2.872,2.872,0,0,1,2.181.831,3.069,3.069,0,0,1,.793,2.211,3.04,3.04,0,0,1-.755,2.211,2.921,2.921,0,0,1-2.129.8Zm0-1.073h1.921a1.621,1.621,0,0,0,1.278-.5,2.086,2.086,0,0,0,.444-1.431,2.151,2.151,0,0,0-.458-1.438A1.56,1.56,0,0,0,109.3-8.88H107.37Zm12.581-4.983v7.075a3.022,3.022,0,0,1-.82,2.215,3.055,3.055,0,0,1-2.249.8,3.047,3.047,0,0,1-2.256-.783,3.071,3.071,0,0,1-.793-2.232V-9.953h1.244v7.022a2.248,2.248,0,0,0,.427,1.5,1.728,1.728,0,0,0,1.377.5,1.737,1.737,0,0,0,1.384-.5,2.248,2.248,0,0,0,.427-1.5V-9.953ZM122.019,0V-9.953h2.837a2.841,2.841,0,0,1,2.047.663,2.644,2.644,0,0,1,.687,1.989,2.2,2.2,0,0,1-.349,1.23,2.343,2.343,0,0,1-.943.827,1.893,1.893,0,0,1,1.083.841,2.818,2.818,0,0,1,.4,1.531,2.914,2.914,0,0,1-.735,2.105,2.768,2.768,0,0,1-2.1.766Zm1.251-4.655v3.582h1.709a1.434,1.434,0,0,0,1.128-.468,1.912,1.912,0,0,0,.417-1.316q0-1.8-1.518-1.8Zm0-1.053h1.606a1.353,1.353,0,0,0,1.049-.438,1.661,1.661,0,0,0,.4-1.165,1.67,1.67,0,0,0-.362-1.2,1.48,1.48,0,0,0-1.107-.373H123.27Zm7.783,4.635h3.9V0H129.8V-9.953h1.258ZM137.892,0h-1.251V-9.953h1.251Zm-1.381-11.546a.755.755,0,0,1,.188-.52.706.706,0,0,1,.557-.212.717.717,0,0,1,.561.212.747.747,0,0,1,.191.52.722.722,0,0,1-.191.513.73.73,0,0,1-.561.205.718.718,0,0,1-.557-.205A.73.73,0,0,1,136.511-11.546Zm5.944,6.959L141.477-3.4V0h-1.251V-9.953h1.251v4.806l.82-1.087,2.68-3.719h1.5l-3.233,4.382L146.734,0h-1.5ZM152.637-2.6h-3.363L148.5,0h-1.285l3.206-9.953H151.5L154.708,0h-1.285ZM149.6-3.678h2.714L150.955-8.2Zm10.948,1.162a1.53,1.53,0,0,0-.4-1.142,4.132,4.132,0,0,0-1.456-.772,6.32,6.32,0,0,1-1.61-.79,2.794,2.794,0,0,1-.834-.943,2.581,2.581,0,0,1-.277-1.213,2.6,2.6,0,0,1,.79-1.948,2.845,2.845,0,0,1,2.068-.766,3.086,3.086,0,0,1,1.559.391,2.665,2.665,0,0,1,1.053,1.087,3.216,3.216,0,0,1,.369,1.53h-1.258a2.1,2.1,0,0,0-.444-1.429,1.611,1.611,0,0,0-1.278-.506,1.573,1.573,0,0,0-1.176.425,1.628,1.628,0,0,0-.417,1.191,1.389,1.389,0,0,0,.451,1.055,4,4,0,0,0,1.395.76,4.8,4.8,0,0,1,2.1,1.2,2.693,2.693,0,0,1,.632,1.859,2.515,2.515,0,0,1-.786,1.938,3.026,3.026,0,0,1-2.14.728,3.442,3.442,0,0,1-1.6-.379,2.868,2.868,0,0,1-1.155-1.066,2.958,2.958,0,0,1-.42-1.576h1.258a1.933,1.933,0,0,0,.516,1.436,1.905,1.905,0,0,0,1.4.513,1.672,1.672,0,0,0,1.244-.424A1.576,1.576,0,0,0,160.549-2.516ZM164.9,0h-1.251V-9.953H164.9Zm6.986,0h-1.251V-9.953h1.251Zm-1.381-11.546a.755.755,0,0,1,.188-.52.706.706,0,0,1,.557-.212.717.717,0,0,1,.561.212.747.747,0,0,1,.191.52.722.722,0,0,1-.191.513.73.73,0,0,1-.561.205.718.718,0,0,1-.557-.205A.73.73,0,0,1,170.506-11.546ZM180.64-4.108a6.146,6.146,0,0,1-.352,2.218,3.214,3.214,0,0,1-1,1.412L180.77.854l-.848.827L178.131.048a4.124,4.124,0,0,1-.834.089,2.987,2.987,0,0,1-2.444-1.09,4.8,4.8,0,0,1-.913-3.066V-5.831a4.964,4.964,0,0,1,.882-3.134,2.95,2.95,0,0,1,2.461-1.125,2.976,2.976,0,0,1,2.468,1.1,4.929,4.929,0,0,1,.889,3.107Zm-1.251-1.736a4.266,4.266,0,0,0-.516-2.348,1.781,1.781,0,0,0-1.589-.769,1.761,1.761,0,0,0-1.555.779,4.129,4.129,0,0,0-.537,2.3v1.777a4.232,4.232,0,0,0,.53,2.331,1.766,1.766,0,0,0,1.576.8,1.774,1.774,0,0,0,1.552-.725,4.033,4.033,0,0,0,.54-2.235Zm8.9-3.035h-2.618V0h-1.251V-8.88h-2.611V-9.953h6.48ZM191.208,0h-1.251V-9.953h1.251Zm-1.381-11.546a.755.755,0,0,1,.188-.52.706.706,0,0,1,.557-.212.717.717,0,0,1,.561.212.747.747,0,0,1,.191.52.722.722,0,0,1-.191.513.73.73,0,0,1-.561.205.718.718,0,0,1-.557-.205A.73.73,0,0,1,189.827-11.546Zm8.063,9.03a1.53,1.53,0,0,0-.4-1.142,4.132,4.132,0,0,0-1.456-.772,6.32,6.32,0,0,1-1.61-.79,2.794,2.794,0,0,1-.834-.943,2.581,2.581,0,0,1-.277-1.213,2.6,2.6,0,0,1,.79-1.948,2.845,2.845,0,0,1,2.068-.766,3.086,3.086,0,0,1,1.559.391,2.665,2.665,0,0,1,1.053,1.087,3.216,3.216,0,0,1,.369,1.53H197.89a2.1,2.1,0,0,0-.444-1.429,1.611,1.611,0,0,0-1.278-.506,1.573,1.573,0,0,0-1.176.425,1.628,1.628,0,0,0-.417,1.191,1.389,1.389,0,0,0,.451,1.055,4,4,0,0,0,1.395.76,4.8,4.8,0,0,1,2.1,1.2,2.693,2.693,0,0,1,.632,1.859,2.515,2.515,0,0,1-.786,1.938,3.026,3.026,0,0,1-2.14.728,3.442,3.442,0,0,1-1.6-.379,2.868,2.868,0,0,1-1.155-1.066,2.958,2.958,0,0,1-.42-1.576h1.258a1.933,1.933,0,0,0,.516,1.436,1.905,1.905,0,0,0,1.4.513,1.672,1.672,0,0,0,1.244-.424A1.576,1.576,0,0,0,197.89-2.516Zm7.687-.089h-3.363L201.441,0h-1.285l3.206-9.953h1.073L207.648,0h-1.285Zm-3.035-1.073h2.714L203.895-8.2ZM209.141,0V-9.953h2.372a3.424,3.424,0,0,1,2.707,1.09,4.476,4.476,0,0,1,.964,3.066v1.668a4.382,4.382,0,0,1-.978,3.052A3.637,3.637,0,0,1,211.37,0Zm1.251-8.88v7.807h1a2.328,2.328,0,0,0,1.928-.756,3.572,3.572,0,0,0,.622-2.241V-5.835a3.608,3.608,0,0,0-.6-2.309,2.23,2.23,0,0,0-1.829-.736ZM218.578,0h-1.251V-9.953h1.251ZM217.2-11.546a.755.755,0,0,1,.188-.52.706.706,0,0,1,.557-.212.717.717,0,0,1,.561.212.747.747,0,0,1,.191.52.722.722,0,0,1-.191.513.73.73,0,0,1-.561.205.718.718,0,0,1-.557-.205A.73.73,0,0,1,217.2-11.546Zm6.306,6.59,2.037-5h1.415l-2.83,6.241V0h-1.251V-3.712l-2.83-6.241h1.422Zm7.6,0,2.037-5h1.415l-2.83,6.241V0h-1.251V-3.712l-2.83-6.241h1.422ZM240-2.6h-3.363L235.863,0h-1.285l3.206-9.953h1.073L242.07,0h-1.285Zm-3.035-1.073h2.714L238.317-8.2ZM248.5-8.88H245.88V0h-1.251V-8.88h-2.611V-9.953h6.48ZM259.682,0h-1.258l-3.985-7.67V0h-1.258V-9.953h1.258l4,7.7v-7.7h1.244Zm6.949-2.6h-3.363L262.495,0H261.21l3.206-9.953h1.073L268.7,0h-1.285ZM263.6-3.678h2.714L264.949-8.2Zm7.536,2.6h4.724V0h-6.111V-.984l4.532-7.9h-4.484V-9.953h5.879V-9ZM278.956,0H277.7V-9.953h1.251Zm-1.381-11.546a.755.755,0,0,1,.188-.52.706.706,0,0,1,.557-.212.717.717,0,0,1,.561.212.747.747,0,0,1,.191.52.722.722,0,0,1-.191.513.73.73,0,0,1-.561.205.718.718,0,0,1-.557-.205A.73.73,0,0,1,277.575-11.546Zm6.723,7.52h-1.75V0H281.29V-9.953h2.789a2.979,2.979,0,0,1,2.215.762,3.05,3.05,0,0,1,.752,2.232,3.1,3.1,0,0,1-.407,1.61,2.57,2.57,0,0,1-1.152,1.036l1.928,4.231V0h-1.347ZM282.548-5.1h1.518a1.625,1.625,0,0,0,1.254-.507,1.919,1.919,0,0,0,.468-1.356q0-1.917-1.736-1.917h-1.5Zm7.571,4.026h3.9V0h-5.161V-9.953h1.258ZM296.958,0h-1.251V-9.953h1.251Zm-1.381-11.546a.755.755,0,0,1,.188-.52.706.706,0,0,1,.557-.212.717.717,0,0,1,.561.212.747.747,0,0,1,.191.52.722.722,0,0,1-.191.513.73.73,0,0,1-.561.205.718.718,0,0,1-.557-.205A.73.73,0,0,1,295.577-11.546Zm6.306,6.59,2.037-5h1.415L302.5-3.712V0h-1.251V-3.712l-2.83-6.241h1.422ZM308.079,0h-1.251V-9.953h1.251ZM306.7-11.546a.755.755,0,0,1,.188-.52.706.706,0,0,1,.557-.212.717.717,0,0,1,.561.212.747.747,0,0,1,.191.52.722.722,0,0,1-.191.513.73.73,0,0,1-.561.205.718.718,0,0,1-.557-.205A.73.73,0,0,1,306.7-11.546ZM5.421,16.484a1.53,1.53,0,0,0-.4-1.142,4.132,4.132,0,0,0-1.456-.772,6.321,6.321,0,0,1-1.61-.79,2.794,2.794,0,0,1-.834-.943,2.581,2.581,0,0,1-.277-1.213,2.6,2.6,0,0,1,.79-1.948A2.845,2.845,0,0,1,3.7,8.91,3.086,3.086,0,0,1,5.257,9.3,2.665,2.665,0,0,1,6.31,10.388a3.216,3.216,0,0,1,.369,1.53H5.421a2.1,2.1,0,0,0-.444-1.429A1.611,1.611,0,0,0,3.7,9.983a1.573,1.573,0,0,0-1.176.425A1.628,1.628,0,0,0,2.105,11.6a1.389,1.389,0,0,0,.451,1.055,4,4,0,0,0,1.395.76,4.8,4.8,0,0,1,2.1,1.2,2.693,2.693,0,0,1,.632,1.859A2.515,2.515,0,0,1,5.9,18.409a3.026,3.026,0,0,1-2.14.728,3.442,3.442,0,0,1-1.6-.379A2.868,2.868,0,0,1,1,17.691a2.958,2.958,0,0,1-.42-1.576H1.839a1.933,1.933,0,0,0,.516,1.436,1.905,1.905,0,0,0,1.4.513A1.672,1.672,0,0,0,5,17.64,1.576,1.576,0,0,0,5.421,16.484Zm7.687-.089H9.744L8.972,19H7.687l3.206-9.953h1.073L15.179,19H13.894Zm-3.035-1.073h2.714L11.426,10.8ZM23.187,19H21.929V14.4H17.924V19H16.673V9.047h1.251v4.279h4.006V9.047h1.258ZM26.8,19H25.549V9.047H26.8ZM25.419,7.454a.755.755,0,0,1,.188-.52.706.706,0,0,1,.557-.212.717.717,0,0,1,.561.212.747.747,0,0,1,.191.52.722.722,0,0,1-.191.513.73.73,0,0,1-.561.205.718.718,0,0,1-.557-.205A.73.73,0,0,1,25.419,7.454ZM29.134,19V9.047h2.837a2.841,2.841,0,0,1,2.047.663,2.644,2.644,0,0,1,.687,1.989,2.2,2.2,0,0,1-.349,1.23,2.343,2.343,0,0,1-.943.827A1.893,1.893,0,0,1,34.5,14.6a2.818,2.818,0,0,1,.4,1.531,2.914,2.914,0,0,1-.735,2.105,2.768,2.768,0,0,1-2.1.766Zm1.251-4.655v3.582h1.709a1.434,1.434,0,0,0,1.128-.468,1.912,1.912,0,0,0,.417-1.316q0-1.8-1.518-1.8Zm0-1.053h1.606a1.353,1.353,0,0,0,1.049-.438,1.661,1.661,0,0,0,.4-1.165,1.67,1.67,0,0,0-.362-1.2,1.48,1.48,0,0,0-1.107-.373H30.385Zm8.753,1.121L38.161,15.6V19H36.91V9.047h1.251v4.806l.82-1.087,2.68-3.719h1.5l-3.233,4.382L43.418,19h-1.5ZM49.32,16.4H45.957L45.185,19H43.9l3.206-9.953h1.073L51.392,19H50.107Zm-3.035-1.073H49L47.639,10.8Zm9.608-.349h-1.75V19H52.885V9.047h2.789a2.979,2.979,0,0,1,2.215.762,3.05,3.05,0,0,1,.752,2.232,3.1,3.1,0,0,1-.407,1.61,2.57,2.57,0,0,1-1.152,1.036l1.928,4.231V19H57.664ZM54.143,13.9h1.518a1.625,1.625,0,0,0,1.254-.507,1.919,1.919,0,0,0,.468-1.356q0-1.917-1.736-1.917h-1.5Zm7.571,4.026h3.9V19H60.456V9.047h1.258ZM68.553,19H67.3V9.047h1.251Zm8.562-1.237-.219.273a3.437,3.437,0,0,1-2.762,1.1,3.163,3.163,0,0,1-2.533-1.07,4.58,4.58,0,0,1-.94-3.025V13.087A4.939,4.939,0,0,1,71.5,9.953,3.531,3.531,0,0,1,76.23,9.7a3.3,3.3,0,0,1,.885,2.259H75.864a2.515,2.515,0,0,0-.516-1.453,1.65,1.65,0,0,0-1.336-.523,1.8,1.8,0,0,0-1.572.7,4.02,4.02,0,0,0-.52,2.239v2.03a3.933,3.933,0,0,0,.574,2.307,1.9,1.9,0,0,0,1.647.8,2.18,2.18,0,0,0,1.538-.49l.185-.17V15.117H74.046V14.044h3.069ZM75.823,6.429a1.7,1.7,0,0,1-.564,1.335,2.422,2.422,0,0,1-2.963,0,1.7,1.7,0,0,1-.567-1.331H72.76a1.035,1.035,0,0,0,.26.749,1,1,0,0,0,.759.27A.931.931,0,0,0,74.8,6.429ZM80.6,19H79.353V9.047H80.6Zm8.835,0H88.182L84.2,11.33V19H82.939V9.047H84.2l4,7.7v-7.7H89.44ZM96.4,19H95.147V9.047H96.4ZM95.018,7.454a.755.755,0,0,1,.188-.52.706.706,0,0,1,.557-.212.717.717,0,0,1,.561.212.747.747,0,0,1,.191.52.722.722,0,0,1-.191.513.73.73,0,0,1-.561.205.718.718,0,0,1-.557-.205A.73.73,0,0,1,95.018,7.454ZM105.234,19h-1.258l-3.985-7.67V19H98.733V9.047h1.258l4,7.7v-7.7h1.244Zm4.536-4.587-.978,1.183V19h-1.251V9.047h1.251v4.806l.82-1.087,2.68-3.719h1.5l-3.233,4.382L114.049,19h-1.5ZM116.615,19h-1.251V9.047h1.251ZM115.234,7.454a.755.755,0,0,1,.188-.52.706.706,0,0,1,.557-.212.717.717,0,0,1,.561.212.747.747,0,0,1,.191.52.722.722,0,0,1-.191.513.73.73,0,0,1-.561.205.718.718,0,0,1-.557-.205A.73.73,0,0,1,115.234,7.454Zm8.063,9.03a1.53,1.53,0,0,0-.4-1.142,4.132,4.132,0,0,0-1.456-.772,6.321,6.321,0,0,1-1.61-.79,2.794,2.794,0,0,1-.834-.943,2.581,2.581,0,0,1-.277-1.213,2.6,2.6,0,0,1,.79-1.948,2.845,2.845,0,0,1,2.068-.766,3.086,3.086,0,0,1,1.559.391,2.665,2.665,0,0,1,1.053,1.087,3.216,3.216,0,0,1,.369,1.53H123.3a2.1,2.1,0,0,0-.444-1.429,1.611,1.611,0,0,0-1.278-.506,1.573,1.573,0,0,0-1.176.425,1.628,1.628,0,0,0-.417,1.191,1.389,1.389,0,0,0,.451,1.055,4,4,0,0,0,1.395.76,4.8,4.8,0,0,1,2.1,1.2,2.693,2.693,0,0,1,.632,1.859,2.515,2.515,0,0,1-.786,1.938,3.026,3.026,0,0,1-2.14.728,3.442,3.442,0,0,1-1.6-.379,2.868,2.868,0,0,1-1.155-1.066,2.958,2.958,0,0,1-.42-1.576h1.258a1.933,1.933,0,0,0,.516,1.436,1.905,1.905,0,0,0,1.4.513,1.672,1.672,0,0,0,1.244-.424A1.576,1.576,0,0,0,123.3,16.484ZM122.081,19l-.068.355a1,1,0,0,1,.629.4,1.325,1.325,0,0,1,.219.786,1.307,1.307,0,0,1-.455,1.046,1.945,1.945,0,0,1-1.3.39l-.041-.731q.875,0,.875-.677a.531.531,0,0,0-.181-.448,1.574,1.574,0,0,0-.721-.2l.191-.916Zm8.9-2.6h-3.363l-.772,2.6h-1.285l3.206-9.953h1.073L133.056,19H131.77Zm-3.035-1.073h2.714L129.3,10.8Zm11.214-.718H135.8V19h-1.251V9.047h5.182V10.12H135.8v3.411h3.363Zm3.558,4.4H141.47V9.047h1.251Zm10.295-4.4h-3.363V19H148.4V9.047h5.182V10.12h-3.931v3.411h3.363Zm8.726.294a4.964,4.964,0,0,1-.868,3.138,2.96,2.96,0,0,1-2.468,1.1,3,3,0,0,1-2.43-1.07,4.732,4.732,0,0,1-.926-3.025V13.169a4.97,4.97,0,0,1,.882-3.127,2.943,2.943,0,0,1,2.461-1.131,2.979,2.979,0,0,1,2.451,1.083,4.883,4.883,0,0,1,.9,3.093Zm-1.251-1.743a4.266,4.266,0,0,0-.516-2.348,1.984,1.984,0,0,0-3.145.01,4.129,4.129,0,0,0-.537,2.3V14.9a4.217,4.217,0,0,0,.53,2.324,1.989,1.989,0,0,0,3.141.062,4.148,4.148,0,0,0,.526-2.263ZM170.317,19H169.06l-3.985-7.67V19h-1.258V9.047h1.258l4,7.7v-7.7h1.244Zm2.307,0V9.047H175a3.424,3.424,0,0,1,2.707,1.09,4.476,4.476,0,0,1,.964,3.066v1.668a4.382,4.382,0,0,1-.978,3.052A3.637,3.637,0,0,1,174.853,19Zm1.251-8.88v7.807h1a2.328,2.328,0,0,0,1.928-.756,3.572,3.572,0,0,0,.622-2.241V13.165a3.608,3.608,0,0,0-.6-2.309A2.23,2.23,0,0,0,175,10.12Zm12.814-1.073v7.075a3.022,3.022,0,0,1-.82,2.215,3.6,3.6,0,0,1-4.5.017,3.071,3.071,0,0,1-.793-2.232V9.047h1.244v7.022a2.247,2.247,0,0,0,.427,1.5,2.173,2.173,0,0,0,2.762,0,2.247,2.247,0,0,0,.427-1.5V9.047Z" transform="translate(164.107 68.307)" fill="#272635"/><g transform="translate(67 38)"><g transform="translate(-0.568 -0.569)" fill="#a6926c"><path d="M 38.06801223754883 74.86191558837891 L 29.34545516967773 66.13935852050781 C 43.34065628051758 64.32491302490234 48.76587677001953 54.05973434448242 50.11576080322266 50.89370727539063 L 50.71633911132813 49.4850959777832 L 49.40023040771484 50.26786804199219 C 48.99344253540039 50.50981521606445 48.56019973754883 50.63248825073242 48.11255264282227 50.63248825073242 L 48.03034973144531 50.63248825073242 L 47.71384048461914 50.63248825073242 L 47.57842254638672 50.9185676574707 C 45.72397994995117 54.83635711669922 39.83687210083008 63.96209716796875 25.25881004333496 64.08578491210938 L 12.05124092102051 64.08576965332031 L 12.05124092102051 49.05224609375 L 12.05124092102051 48.84513473510742 L 11.9047908782959 48.69869613647461 L 1.275100588798523 38.06899642944336 L 9.998978614807129 29.34511947631836 C 11.81142234802246 43.32631683349609 22.0625171661377 48.75649642944336 25.22422981262207 50.10860824584961 L 26.64926147460938 50.718017578125 L 25.84903144836426 49.39071655273438 C 25.60195159912109 48.98089599609375 25.47667121887207 48.54271697998047 25.47667121887207 48.08834457397461 L 25.47667121887207 47.9915657043457 L 25.47667121887207 47.67980575561523 L 25.19672012329102 47.54259490966797 C 21.28330993652344 45.62451553344727 12.16845035552979 39.61167526245117 12.05122089385986 25.24009704589844 L 12.05123996734619 12.05224609375 L 27.08476066589355 12.05224609375 L 27.2918701171875 12.05224609375 L 27.43831062316895 11.90579605102539 L 38.06800842285156 1.276087403297424 L 46.79306411743164 9.999948501586914 C 32.80121612548828 11.81340312957764 27.3747501373291 22.0731372833252 26.0242805480957 25.23750686645508 L 25.42595100402832 26.63948631286621 L 26.73843002319336 25.86427688598633 C 27.14594078063965 25.62358665466309 27.57739067077637 25.50154685974121 28.02080154418945 25.50154685974121 L 28.10830116271973 25.50154685974121 L 28.4248104095459 25.50154685974121 L 28.56023025512695 25.2154655456543 C 30.41497993469238 21.29714584350586 36.3037223815918 12.17074680328369 50.89026260375977 12.05222606658936 L 64.08608245849609 12.05224609375 L 64.08608245849609 27.08575630187988 L 64.08608245849609 27.29286575317383 L 64.23252868652344 27.43930625915527 L 74.86222076416016 38.06899642944336 L 66.13712310791016 46.79409790039063 C 64.32534790039063 32.81568145751953 54.07278060913086 27.38100051879883 50.9105110168457 26.02810668945313 L 49.48522186279297 25.41833686828613 L 50.28564071655273 26.7459659576416 C 50.53271102905273 27.15577697753906 50.65798950195313 27.593505859375 50.65798950195313 28.0469970703125 L 50.65798950195313 28.11858558654785 L 50.65798950195313 28.43465614318848 L 50.94350051879883 28.57023620605469 C 54.85776138305664 30.42915725708008 63.97402954101563 36.32675552368164 64.08609008789063 50.9056282043457 L 64.08608245849609 64.08576965332031 L 49.05255889892578 64.08576965332031 L 48.8454704284668 64.08576965332031 L 48.69903182983398 64.23219299316406 L 38.06801223754883 74.86191558837891 Z" stroke="none"/><path d="M 38.06804275512695 1.983161926269531 L 27.7918701171875 12.25934600830078 L 27.49897003173828 12.5522346496582 L 27.08476257324219 12.5522346496582 L 12.55123901367188 12.5522346496582 L 12.55123901367188 25.23956680297852 C 12.60162353515625 31.34304428100586 14.29473114013672 36.55974197387695 17.58354949951172 40.74518585205078 C 20.37350082397461 44.2957763671875 23.68886184692383 46.2467041015625 25.41679000854492 47.0936279296875 L 25.97668075561523 47.36804580688477 L 25.97668075561523 47.9915657043457 L 25.97668075561523 48.08834838867188 C 25.97668075561523 48.45045471191406 26.07780075073242 48.80177688598633 26.2772216796875 49.1325569152832 L 27.87768936157227 51.78715515136719 L 25.02762985229492 50.56832885742188 C 21.87948608398438 49.22202682495117 11.83866882324219 43.91032791137695 9.647956848144531 30.40325546264648 L 1.982223510742188 38.06899642944336 L 12.25835037231445 48.34513854980469 L 12.55123901367188 48.63803863525391 L 12.55123901367188 49.05224609375 L 12.55123901367188 63.58575439453125 L 25.2591438293457 63.58575439453125 C 31.45376968383789 63.53238677978516 36.70888900756836 61.83404159545898 40.87863159179688 58.53785705566406 C 44.41013336181641 55.74619674682617 46.30894088745117 52.43183898925781 47.12648010253906 50.70465850830078 L 47.39730834960938 50.13248443603516 L 48.03034210205078 50.13248443603516 L 48.112548828125 50.13248443603516 C 48.46900177001953 50.13248443603516 48.81623840332031 50.033447265625 49.14462280273438 49.838134765625 L 51.77688980102539 48.27250671386719 L 50.57569885253906 51.08979797363281 C 49.23152923583984 54.24246215820313 43.9256706237793 64.29800415039063 30.40361785888672 66.49040222167969 L 38.06803894042969 74.15481567382813 L 48.34550094604492 63.87860870361328 L 48.63838195800781 63.58575439453125 L 49.05255889892578 63.58575439453125 L 63.5860710144043 63.58575439453125 L 63.5860710144043 50.90570068359375 C 63.53786849975586 44.71305847167969 61.84676742553711 39.45807266235352 58.55970001220703 35.28592681884766 C 55.77188873291016 31.74746704101563 52.45690155029297 29.84249496459961 50.72900009155273 29.02189636230469 L 50.15798950195313 28.75071716308594 L 50.15798950195313 28.11858749389648 L 50.15798950195313 28.0469970703125 C 50.15798950195313 27.68578720092773 50.05686950683594 27.33490753173828 49.85744094848633 27.00412750244141 L 48.25661087036133 24.34888458251953 L 51.10718154907227 25.56840515136719 C 54.25603103637695 26.91555404663086 64.29891967773438 32.22943878173828 66.48821258544922 45.73588562011719 L 74.15509796142578 38.06899642944336 L 63.87895965576172 27.79286575317383 L 63.5860710144043 27.49996566772461 L 63.5860710144043 27.08575820922852 L 63.5860710144043 12.5522346496582 L 50.89074325561523 12.5522346496582 C 44.69357299804688 12.60319137573242 39.43611526489258 14.29994964599609 35.26401901245117 17.59540557861328 C 31.72922134399414 20.38747787475586 29.82978057861328 23.70208740234375 29.01214981079102 25.42937469482422 L 28.7413215637207 26.00153732299805 L 28.10829925537109 26.00153732299805 L 28.02080154418945 26.00153732299805 C 27.66807174682617 26.00153732299805 27.32216262817383 26.1002082824707 26.99269104003906 26.29479598999023 L 24.36777114868164 27.84512710571289 L 25.56441116333008 25.04122543334961 C 26.90919494628906 21.89022827148438 32.21593856811523 11.84009552001953 45.73480606079102 9.648895263671875 L 38.06804275512695 1.983161926269531 M 38.06798934936523 0.5689926147460938 L 47.88051986694336 10.38020324707031 C 33.42889022827148 11.77630615234375 27.87894058227539 22.16557693481445 26.48414993286133 25.43375778198242 C 26.93759155273438 25.16594696044922 27.45864105224609 25.00153732299805 28.02080154418945 25.00153732299805 L 28.10829925537109 25.00153732299805 C 30.01618194580078 20.97099685668945 36.03681182861328 11.67288970947266 50.88619995117188 11.55223846435547 L 64.58607482910156 11.55223846435547 L 64.58607482910156 27.08575820922852 L 75.56932067871094 38.06899642944336 L 65.75679016113281 47.88152694702148 C 64.36332702636719 33.44447708129883 53.99263000488281 27.89053726196289 50.71384048461914 26.48780822753906 C 50.98960876464844 26.94521713256836 51.15798950195313 27.47555541992188 51.15798950195313 28.0469970703125 L 51.15798950195313 28.11858749389648 C 55.20046234130859 30.03839492797852 64.47205352783203 36.06698608398438 64.58607482910156 50.90178680419922 L 64.58607482910156 64.58575439453125 L 49.05255889892578 64.58575439453125 L 38.06798934936523 75.56898498535156 L 28.25812149047852 65.75912475585938 C 42.71903991699219 64.3616943359375 48.26634216308594 53.95651626586914 49.65582275390625 50.69759368896484 C 49.2010498046875 50.96808624267578 48.67735290527344 51.13248443603516 48.112548828125 51.13248443603516 L 48.03034210205078 51.13248443603516 C 46.1237907409668 55.16037750244141 40.10845947265625 64.45979309082031 25.2630500793457 64.58575439453125 L 11.55123901367188 64.58575439453125 L 11.55123901367188 49.05224609375 L 0.5680007934570313 38.06899642944336 L 10.37920379638672 28.25779724121094 C 11.77397918701172 42.69087600708008 22.14070892333984 48.24613571166992 25.42082977294922 49.64887619018555 C 25.14505004882813 49.19145584106445 24.97668075561523 48.66111755371094 24.97668075561523 48.08834838867188 L 24.97668075561523 47.9915657043457 C 20.94612884521484 46.01606750488281 11.67057037353516 39.87346649169922 11.55123901367188 25.24416732788086 L 11.55123901367188 11.55223846435547 L 27.08476257324219 11.55223846435547 L 38.06798934936523 0.5689926147460938 Z" stroke="none" fill="#a6926c"/></g></g><g transform="translate(70.596 41.597)"><g transform="translate(-0.568 -0.569)" fill="#fff"><path d="M 34.47637557983398 67.67864227294922 L 26.6917896270752 59.89404678344727 C 39.29929733276367 58.21524810791016 44.19426727294922 48.95396423339844 45.41427612304688 46.092529296875 L 46.01485443115234 44.68392944335938 L 44.69874572753906 45.46669006347656 C 44.33843612670898 45.68098831176758 43.95492553710938 45.78964996337891 43.55887603759766 45.78964996337891 L 43.48454666137695 45.78964996337891 L 43.16803359985352 45.78964996337891 L 43.03261566162109 46.07572937011719 C 41.35964584350586 49.61013031005859 36.04829406738281 57.84283065795898 22.89359474182129 57.95444107055664 L 10.99929523468018 57.95442199707031 L 10.99929523468018 44.40864944458008 L 10.99929523468018 44.2015380859375 L 10.85284519195557 44.05509948730469 L 1.275105357170105 34.47735977172852 L 9.060881614685059 26.69158363342285 C 10.73780918121338 39.28651428222656 19.98636627197266 44.18584442138672 22.84389495849609 45.40787124633789 L 24.26889610290527 46.01726913452148 L 23.46869468688965 44.68997955322266 C 23.24984550476074 44.32698822021484 23.13888549804688 43.9390983581543 23.13888549804688 43.53709030151367 L 23.13888549804688 43.44956970214844 L 23.13888549804688 43.13780975341797 L 22.85893630981445 43.0005989074707 C 19.32832527160645 41.2701416015625 11.105055809021 35.84518051147461 10.99927520751953 22.87677001953125 L 10.99929428100586 11.00029945373535 L 24.54506492614746 11.00029945373535 L 24.75217628479004 11.00029945373535 L 24.89861488342285 10.85384941101074 L 34.47637557983398 1.276081085205078 L 42.26320648193359 9.061860084533691 C 29.65872573852539 10.73973655700684 24.76265907287598 19.99609565734863 23.54210472106934 22.85602951049805 L 22.94376564025879 24.25802040100098 L 24.25625610351563 23.4827995300293 C 24.61725616455078 23.26957893371582 24.99918556213379 23.16147041320801 25.39144515991211 23.16147041320801 L 25.4705753326416 23.16147041320801 L 25.78708457946777 23.16147041320801 L 25.92250633239746 22.87538909912109 C 27.59574508666992 19.34051895141602 32.90856552124023 11.1072301864624 46.0709342956543 11.00027942657471 L 57.95462417602539 11.00029850006104 L 57.95462417602539 24.54606056213379 L 57.95462417602539 24.75317001342773 L 58.10107421875 24.89961051940918 L 67.67881774902344 34.47735977172852 L 59.89195251464844 42.26423263549805 C 58.21645355224609 29.66999626159668 48.96588516235352 24.76847457885742 46.10768508911133 23.54567909240723 L 44.68239593505859 22.93592071533203 L 45.48281478881836 24.26354026794434 C 45.70166397094727 24.62653923034668 45.8126335144043 25.01401901245117 45.8126335144043 25.41522979736328 L 45.8126335144043 25.4799690246582 L 45.8126335144043 25.79603958129883 L 46.09813690185547 25.93161964416504 C 49.62935638427734 27.60862922668457 57.853515625 32.92945861816406 57.95463562011719 46.08489990234375 L 57.95462417602539 57.95441818237305 L 44.40885543823242 57.95441818237305 L 44.20176696777344 57.95441818237305 L 44.05532455444336 58.10084915161133 L 34.47637557983398 67.67864227294922 Z" stroke="none"/><path d="M 34.47640991210938 1.983169555664063 L 25.25216674804688 11.2074089050293 L 24.95926666259766 11.50030136108398 L 24.5450553894043 11.50030136108398 L 11.49929428100586 11.50030136108398 L 11.49929428100586 22.87625122070313 C 11.54485702514648 28.37303924560547 13.06890869140625 33.07075881958008 16.02915573120117 36.83805847167969 C 18.54013442993164 40.03361892700195 21.52389526367188 41.7894287109375 23.07899475097656 42.55162811279297 L 23.63888549804688 42.8260498046875 L 23.63888549804688 43.44956970214844 L 23.63888549804688 43.53709030151367 C 23.63888549804688 43.84681701660156 23.7256965637207 44.14785766601563 23.89689636230469 44.43183135986328 L 25.49729537963867 47.08638763427734 L 22.64729690551758 45.86759185791016 C 19.80327224731445 44.65134811401367 10.7635498046875 39.87089157104492 8.714241027832031 27.74533462524414 L 1.982215881347656 34.47735977172852 L 11.20640563964844 43.7015380859375 L 11.49929428100586 43.99443817138672 L 11.49929428100586 44.40864944458008 L 11.49929428100586 57.45442199707031 L 22.89392852783203 57.45442199707031 C 28.47348022460938 57.40634918212891 33.20511245727539 55.87761688232422 36.95839691162109 52.91062927246094 C 40.13635635375977 50.3984489440918 41.84502410888672 47.41601943969727 42.58068466186523 45.86182022094727 L 42.85151672363281 45.28964996337891 L 43.48454284667969 45.28964996337891 L 43.55887603759766 45.28964996337891 C 43.86371612548828 45.28964996337891 44.16123580932617 45.20462799072266 44.44315338134766 45.03696060180664 L 47.07536315917969 43.47142791748047 L 45.87421417236328 46.28862762451172 C 44.65988922119141 49.13673400878906 39.88449096679688 58.18975448608398 27.74557495117188 60.24071502685547 L 34.47640228271484 66.97154998779297 L 43.70179748535156 57.74726867675781 L 43.99467468261719 57.45442199707031 L 44.40885543823242 57.45442199707031 L 57.45461654663086 57.45442199707031 L 57.45461654663086 46.08497619628906 C 57.41102600097656 40.50762939453125 55.88880157470703 35.77534103393555 52.93020629882813 32.02011108398438 C 50.42147827148438 28.83588027954102 47.43848419189453 27.12168121337891 45.88364410400391 26.38327789306641 L 45.31263732910156 26.11209869384766 L 45.31263732910156 25.4799690246582 L 45.31263732910156 25.41522979736328 C 45.31263732910156 25.10630035400391 45.22582626342773 24.80566787719727 45.05462646484375 24.52169799804688 L 43.45375823974609 21.86643981933594 L 46.30435562133789 23.08599090576172 C 49.14902496337891 24.30300140380859 58.19060516357422 29.08540344238281 60.23865509033203 41.21039581298828 L 66.97168731689453 34.47735977172852 L 57.74750518798828 25.25317001342773 L 57.45461654663086 24.96026992797852 L 57.45461654663086 24.54605865478516 L 57.45461654663086 11.50030136108398 L 46.07141876220703 11.50030136108398 C 40.48957061767578 11.54619598388672 35.7557258605957 13.07350158691406 32.00031661987305 16.03982162475586 C 28.81937408447266 18.5523796081543 27.11015701293945 21.53501892089844 26.37442398071289 23.08929824829102 L 26.10359573364258 23.66146087646484 L 25.47057723999023 23.66146087646484 L 25.39144515991211 23.66146087646484 C 25.08986663818359 23.66146087646484 24.79348373413086 23.74620056152344 24.51053619384766 23.9133186340332 L 21.88556671142578 25.46374130249023 L 23.08223724365234 22.65977096557617 C 24.29709625244141 19.81315231323242 29.07320785522461 10.7650146484375 41.20932769775391 8.715164184570313 L 34.47640991210938 1.983169555664063 M 34.47635650634766 0.569000244140625 L 43.34907531738281 9.440509796142578 C 30.28156661987305 10.70289993286133 25.26317596435547 20.09711074829102 24.00197601318359 23.05228805541992 C 24.4119873046875 22.81011962890625 24.88313674926758 22.66146087646484 25.39144515991211 22.66146087646484 L 25.47057723999023 22.66146087646484 C 27.19572448730469 19.01694869995117 32.63971710205078 10.60939025878906 46.06687545776367 10.50030136108398 L 58.45461654663086 10.50030136108398 L 58.45461654663086 24.54605865478516 L 68.38590240478516 34.47735977172852 L 59.51320648193359 43.35006713867188 C 58.25321578979492 30.29574966430664 48.87577819824219 25.27376937866211 45.91101455688477 24.00537872314453 C 46.16037750244141 24.41897964477539 46.31263732910156 24.89852905273438 46.31263732910156 25.41522979736328 L 46.31263732910156 25.4799690246582 C 49.96793365478516 27.21590042114258 58.35151672363281 32.66709136962891 58.45461654663086 46.08106231689453 L 58.45461654663086 58.45442199707031 L 44.40885543823242 58.45442199707031 L 34.47635650634766 68.38571929931641 L 25.60604476928711 59.51539993286133 C 38.68193817138672 58.25180816650391 43.69793701171875 48.84320831298828 44.95433807373047 45.89643096923828 C 44.54312515258789 46.14099884033203 44.06957626342773 46.28964996337891 43.55887603759766 46.28964996337891 L 43.48454284667969 46.28964996337891 C 41.76058578491211 49.93177032470703 36.32139587402344 58.34053039550781 22.89783477783203 58.45442199707031 L 10.49929428100586 58.45442199707031 L 10.49929428100586 44.40864944458008 L 0.5679931640625 34.47735977172852 L 9.43951416015625 25.60583877563477 C 10.70070648193359 38.65655899047852 20.07453536987305 43.67974853515625 23.04049682617188 44.94813919067383 C 22.79113388061523 44.53453063964844 22.63888549804688 44.05498886108398 22.63888549804688 43.53709030151367 L 22.63888549804688 43.44956970214844 C 18.99436569213867 41.66328048706055 10.60719680786133 36.10900115966797 10.49929428100586 22.8808479309082 L 10.49929428100586 10.50030136108398 L 24.5450553894043 10.50030136108398 L 34.47635650634766 0.569000244140625 Z" stroke="none" fill="#fff"/></g><g transform="translate(19.025 19.025)"><path d="M39.561,28.549H33.722a3.114,3.114,0,0,0-3-2.29h-.012a3.1,3.1,0,0,0-2.194.911,3.134,3.134,0,0,0-.8,1.379H21.878a2.4,2.4,0,0,0-2.4,2.4v7.241a2.4,2.4,0,0,0,2.4,2.4H39.561a2.4,2.4,0,0,0,2.4-2.4V30.947A2.4,2.4,0,0,0,39.561,28.549Zm.743,9.783a.6.6,0,0,1-.6.6H21.746a.594.594,0,0,1-.6-.6V30.791a.594.594,0,0,1,.6-.6h7.721a1.517,1.517,0,0,1-.24-.827,1.5,1.5,0,0,1,1.487-1.5h.012a1.5,1.5,0,0,1,1.259.683,1.477,1.477,0,0,1,.24.815,1.625,1.625,0,0,1-.24.827H39.7a.6.6,0,0,1,.6.6Z" transform="translate(-15.833 -14.485)" fill="#9a8e73"/><path d="M21.881,19.5a2.4,2.4,0,0,0-2.4,2.4v7.241a2.421,2.421,0,0,0,.408,1.331,2.687,2.687,0,0,1,1.377-.8.625.625,0,0,1-.119-.372V21.757a.593.593,0,0,1,.6-.6h2.217L25.62,19.5ZM40.307,29.3a.562.562,0,0,1-.132.372,2.658,2.658,0,0,1,1.377.815,2.358,2.358,0,0,0,.409-1.343v-.276l-1.654-1.654ZM39.564,19.5H28.821l-1.665,1.654H39.708a.6.6,0,0,1,.6.6v2.254l1.654,1.654V21.9A2.406,2.406,0,0,0,39.564,19.5Z" transform="translate(-15.832 -15.829)" fill="#719dcc"/><path d="M38.695,37.934a2.58,2.58,0,0,1-1.427-.42.511.511,0,0,1-.168.36l-1.487,1.487h2.338l.2-.2a2.477,2.477,0,0,0,.659-1.223Zm-5.335,3.68-1.6,1.594a.6.6,0,0,1-.851,0L29.32,41.615H26.982l2.66,2.661a2.4,2.4,0,0,0,3.393,0L35.7,41.615ZM19.789,28.092V25.73l-2.651,2.649a2.4,2.4,0,0,0,0,3.393l2.651,2.649V32.084l-1.57-1.57a.591.591,0,0,1,0-.851Zm3.7-5.359v-.12a2.418,2.418,0,0,0-1.235.647l-.2.2v2.362l1.5-1.5a.589.589,0,0,1,.36-.168A2.582,2.582,0,0,1,23.493,22.733ZM22.055,34.35v2.338l2.672,2.673h2.339Z" transform="translate(-16.438 -15.21)" fill="#979e5d"/><path d="M37.881,37.1a.6.6,0,0,1-.839,0l-4.652-4.652H31.1a1.438,1.438,0,0,1-.683.348,1.485,1.485,0,0,1-1.3-.348h-1.9a2.915,2.915,0,0,0,.682,1.067l.012.012a3.13,3.13,0,0,0,3.74.5l.217.216,3.907,3.908a2.391,2.391,0,0,0,3.393,0l.229-.228V35.59ZM28.34,28.4l-4-4a.6.6,0,0,1,0-.839l5.335-5.335a.592.592,0,0,1,.85,0l1.594,1.594h2.339L31.78,17.139a2.4,2.4,0,0,0-3.393,0L23.46,22.067l-.193.192a2.415,2.415,0,0,0,0,3.393l3.921,3.908a3.386,3.386,0,0,1,.5-.647A3.71,3.71,0,0,1,28.34,28.4Zm15.945,1.247-7.577-7.577H34.369l8.849,8.848a.6.6,0,0,1,0,.851l-1.57,1.571v2.338l2.637-2.637A2.4,2.4,0,0,0,44.285,29.643Z" transform="translate(-15.218 -16.438)" fill="#ec4279"/></g></g></g></svg>